<svg width="307" height="307" viewBox="0 0 307 307" fill="none" xmlns="http://www.w3.org/2000/svg">
<rect width="307" height="307" fill="black"/>
<path d="M68 120.536H84.128L93.472 149.336L100 173.144H100.896L107.424 149.336L116.512 120.536H132.128L109.728 187.352H90.272L68 120.536Z" fill="white"/>
<path d="M159.445 131.672H160.085C163.157 123.224 169.045 119 178.005 119C182.613 119 186.709 120.152 190.037 122.456C193.365 124.76 195.797 128.088 197.333 132.44H197.589C198.869 128.6 201.301 125.4 204.885 122.84C208.469 120.28 212.821 119 218.069 119C224.597 119 229.589 121.304 233.173 125.784C236.757 130.392 238.549 136.792 238.549 145.112V187.352H222.165V146.776C222.165 137.304 218.581 132.44 211.413 132.44C207.829 132.44 204.885 133.464 202.581 135.384C200.149 137.304 198.997 139.864 198.997 143.192V187.352H182.613V146.776C182.613 137.304 179.029 132.44 171.861 132.44C168.533 132.44 165.589 133.464 163.157 135.384C160.597 137.432 159.445 139.992 159.445 143.192V187.352H143.061V120.536H159.445V131.672Z" fill="white"/>
</svg>