<svg width="424" height="424" viewBox="0 0 424 424" fill="none" xmlns="http://www.w3.org/2000/svg">
<g clip-path="url(#clip0_8_100)">
<path d="M423.71 0H0V423.71H423.71V0Z" fill="#1A1A1A"/>
<path d="M86.72 211.85V273.65H61.74V211.85" fill="white"/>
<path d="M86.72 211.85V150.06H111.69V211.85" fill="white"/>
<path d="M86.72 273.65L111.7 211.85H136.68L111.69 273.65" fill="white"/>
<path d="M136.68 211.85L161.67 150.06H186.65L161.66 211.85" fill="white"/>
<path d="M336.76 211.85V150.06H361.74V211.85" fill="white"/>
<path d="M336.76 211.85V273.65H311.78V211.85" fill="white"/>
<path d="M336.76 150.06L311.77 211.85H286.79L311.78 150.06" fill="white"/>
<path d="M286.79 211.85L261.8 273.65H236.83L261.81 211.85" fill="white"/>
<path d="M236.83 211.85V150.06H261.81V211.85" fill="white"/>
<path d="M236.83 211.85V273.65H211.85V211.85" fill="white"/>
<path d="M236.83 150.06L211.84 211.85H186.86L211.85 150.06" fill="white"/>
<path d="M186.86 211.85L161.88 273.65H136.9L161.89 211.85" fill="white"/>
</g>
<defs>
<clipPath id="clip0_8_100">
<rect width="423.71" height="423.71" fill="white"/>
</clipPath>
</defs>
</svg>