<svg width="62" height="9" viewBox="0 0 62 9" fill="none" xmlns="http://www.w3.org/2000/svg">
<g clip-path="url(#clip0_64_127)">
<path d="M27.9697 1.08V0H28.8697V1.08H27.9697ZM27.9697 6.25V1.8H28.8697V6.25H27.9697Z" fill="white"/>
<path d="M30.7401 4.32002C30.8201 5.15002 31.2501 5.61002 32.0101 5.61002C32.5601 5.61002 32.9501 5.33002 33.1801 4.84002L33.9501 5.25002C33.5901 5.94002 32.9001 6.35002 32.0201 6.35002C30.6101 6.35002 29.8301 5.42002 29.8301 4.03002C29.8301 2.64002 30.6301 1.71002 31.9401 1.71002C33.2501 1.71002 34.0601 2.62002 34.0601 4.03002C34.0601 4.15002 34.0601 4.24002 34.0501 4.33002H30.7601L30.7401 4.32002ZM30.7501 3.63002H33.1101C33.0101 2.86002 32.5901 2.44002 31.9301 2.44002C31.2701 2.44002 30.8501 2.85002 30.7501 3.63002Z" fill="white"/>
<path d="M40.39 1.79999H41.35L39.81 6.24999H38.91L37.8 2.90999L36.69 6.24999H35.79L34.25 1.79999H35.21L36.25 5.06999L37.33 1.79999H38.29L39.37 5.06999L40.4 1.79999H40.39Z" fill="white"/>
<path d="M48.3405 3.20002V6.25002H47.4405V3.40002C47.4405 2.78002 47.0805 2.46002 46.5605 2.46002C46.0005 2.46002 45.6105 2.85002 45.6105 3.51002V6.25002H44.7105V3.40002C44.7105 2.78002 44.3505 2.46002 43.8305 2.46002C43.2705 2.46002 42.8805 2.85002 42.8805 3.51002V6.25002H41.9805V1.80002H42.8805V2.48002C43.1205 2.01002 43.6005 1.71002 44.1805 1.71002C44.8105 1.71002 45.2805 2.01002 45.4905 2.52002C45.7905 1.99002 46.2805 1.71002 46.8405 1.71002C47.7205 1.71002 48.3505 2.30002 48.3505 3.20002H48.3405Z" fill="white"/>
<path d="M49.1396 4.02001C49.1396 2.61001 49.8996 1.70001 51.0996 1.70001C51.6896 1.70001 52.2396 2.00001 52.4996 2.44001V1.79001H53.3997V6.24001H52.4996V5.59001C52.2496 6.04001 51.6896 6.33001 51.0996 6.33001C49.9096 6.33001 49.1396 5.42001 49.1396 4.01001V4.02001ZM52.4897 4.02001C52.4897 3.05001 52.0496 2.46001 51.2896 2.46001C50.5296 2.46001 50.0797 3.05001 50.0797 4.02001C50.0797 4.99001 50.5396 5.59001 51.2896 5.59001C52.0396 5.59001 52.4897 5.01001 52.4897 4.02001Z" fill="white"/>
<path d="M60.78 6.25L59.43 4.19L58.65 5.03V6.24H57.75V0H58.65V3.95L60.66 1.79H61.77L60.06 3.59L61.82 6.24H60.77L60.78 6.25Z" fill="white"/>
<path d="M56.9498 1.79999H55.4098H54.5098V2.61999V6.24999H55.4098V2.61999H56.9498V1.79999Z" fill="white"/>
<path d="M26.0799 1.79999H27.0399L25.2999 6.24999H24.3999L22.6699 1.79999H23.6299L24.8499 5.15999L26.0799 1.79999Z" fill="white"/>
<path d="M1.63 4.03003V8.05003H0V4.03003" fill="white"/>
<path d="M1.62988 4.03V0H3.25988V4.03" fill="white"/>
<path d="M1.62988 8.05003L3.25988 4.03003H4.87988L3.25988 8.05003" fill="white"/>
<path d="M4.87988 4.03L6.50988 0H8.13988L6.50988 4.03" fill="white"/>
<path d="M17.9199 4.03V0H19.5499V4.03" fill="white"/>
<path d="M17.92 4.03003V8.05003H16.29V4.03003" fill="white"/>
<path d="M17.9202 0L16.2902 4.03H14.6602L16.2902 0" fill="white"/>
<path d="M14.6602 4.03003L13.0402 8.05003H11.4102L13.0402 4.03003" fill="white"/>
<path d="M11.4102 4.03V0H13.0402V4.03" fill="white"/>
<path d="M11.4103 4.03003V8.05003H9.78027V4.03003" fill="white"/>
<path d="M11.4104 0L9.78039 4.03H8.15039L9.78039 0" fill="white"/>
<path d="M8.15039 4.03003L6.53039 8.05003H4.90039L6.53039 4.03003" fill="white"/>
</g>
<defs>
<clipPath id="clip0_64_127">
<rect width="61.83" height="8.05" fill="white"/>
</clipPath>
</defs>
</svg>
