<svg width="20" height="9" viewBox="0 0 20 9" fill="none" xmlns="http://www.w3.org/2000/svg">
<path d="M1.63 4.03003V8.05003H0V4.03003" fill="white"/>
<path d="M1.62988 4.03V0H3.25988V4.03" fill="white"/>
<path d="M1.62988 8.05003L3.25988 4.03003H4.87988L3.25988 8.05003" fill="white"/>
<path d="M4.87988 4.03L6.50988 0H8.13988L6.50988 4.03" fill="white"/>
<path d="M17.9199 4.03V0H19.5499V4.03" fill="white"/>
<path d="M17.92 4.03003V8.05003H16.29V4.03003" fill="white"/>
<path d="M17.9202 0L16.2902 4.03H14.6602L16.2902 0" fill="white"/>
<path d="M14.6602 4.03003L13.0402 8.05003H11.4102L13.0402 4.03003" fill="white"/>
<path d="M11.4102 4.03V0H13.0402V4.03" fill="white"/>
<path d="M11.4103 4.03003V8.05003H9.78027V4.03003" fill="white"/>
<path d="M11.4104 0L9.78039 4.03H8.15039L9.78039 0" fill="white"/>
<path d="M8.15039 4.03003L6.53039 8.05003H4.90039L6.53039 4.03003" fill="white"/>
</svg>
